<svg width="16" height="16" viewBox="0 0 16 16"  xmlns="http://www.w3.org/2000/svg" fill="currentColor">
<path d="M13.5312 2.0625C13.8125 2.34375 14 2.71875 14 3.125V11.5C14 12.3438 13.3125 13 12.5 13H10V14.5C10 15.3438 9.3125 16 8.5 16H1.5C0.65625 16 0 15.3438 0 14.5V4.5C0 3.6875 0.65625 3 1.5 3H4V1.5C4 0.6875 4.65625 0 5.5 0H10.875C11.2812 0 11.6562 0.1875 11.9375 0.46875L13.5312 2.0625ZM11 1.03125V3H12.9688C12.9375 2.9375 12.9062 2.84375 12.8438 2.78125L11.2188 1.15625C11.1562 1.09375 11.0625 1.0625 11 1.03125ZM9 14.5V13H5.5C4.65625 13 4 12.3438 4 11.5V4H1.5C1.21875 4 1 4.25 1 4.5V14.5C1 14.7812 1.21875 15 1.5 15H8.5C8.75 15 9 14.7812 9 14.5ZM13 11.5V4H10.75C10.3125 4 10 3.6875 10 3.25V1H5.5C5.21875 1 5 1.25 5 1.5V11.5C5 11.7812 5.21875 12 5.5 12H12.5C12.75 12 13 11.7812 13 11.5Z"/>
</svg>
