<svg width="16" height="15" viewBox="0 0 16 15" fill="none" xmlns="http://www.w3.org/2000/svg">
<path d="M13.2877 0.203224L15.789 2.70445C16.0703 3.0171 16.0703 3.48608 15.789 3.76746L13.2877 6.26869C12.9751 6.58134 12.5061 6.58134 12.2247 6.26869C11.9121 5.9873 11.9121 5.51832 12.2247 5.20567L13.4441 3.98632H11.0054C10.5989 3.98632 10.2237 4.17391 10.0049 4.48657L8.56668 6.42501L7.62872 5.1744L8.78554 3.61114C9.31705 2.89204 10.1299 2.48559 11.0054 2.48559H13.4441L12.2247 1.26624C11.9121 0.984856 11.9121 0.515877 12.2247 0.234489C12.5061 -0.0781632 12.9751 -0.0781632 13.2565 0.234489L13.2877 0.203224ZM6.37811 9.33268L5.19003 10.8959C4.65852 11.5838 3.84563 11.9902 3.00147 11.9902H0.750366C0.312653 11.9902 0 11.6776 0 11.2399C0 10.8334 0.312653 10.4895 0.750366 10.4895H3.00147C3.37665 10.4895 3.75183 10.3332 4.00195 9.98925L5.44016 8.08207L6.37811 9.33268ZM12.2247 8.20713C12.5061 7.92574 12.9751 7.92574 13.2565 8.20713L15.7577 10.7084C16.0703 11.021 16.0703 11.49 15.7577 11.7714L13.2565 14.2726C12.9751 14.5852 12.5061 14.5852 12.2247 14.2726C11.9121 13.9912 11.9121 13.5222 12.2247 13.2096L13.4441 11.9902H11.0054C10.1299 11.9902 9.31705 11.5838 8.78554 10.8959L4.00195 4.48657C3.75183 4.17391 3.37665 3.98632 3.00147 3.98632H0.750366C0.312653 3.98632 0 3.67367 0 3.23596C0 2.82951 0.312653 2.48559 0.750366 2.48559H3.00147C3.84563 2.48559 4.65852 2.89204 5.19003 3.61114L10.0049 9.98925C10.2237 10.3332 10.5989 10.4895 11.0054 10.4895H13.4441L12.2247 9.27015C11.9121 8.98876 11.9121 8.51979 12.2247 8.2384V8.20713Z" fill="black"/>
</svg>
