<svg width="20" height="6" viewBox="0 0 20 6" fill="currentColor" xmlns="http://www.w3.org/2000/svg">
<path d="M15.2266 2.98828C15.2266 2.19141 15.6953 1.48828 16.3516 1.06641C17.0547 0.644531 17.9453 0.644531 18.6016 1.06641C19.3047 1.48828 19.7266 2.19141 19.7266 2.98828C19.7266 3.83203 19.3047 4.53516 18.6016 4.95703C17.9453 5.37891 17.0547 5.37891 16.3516 4.95703C15.6953 4.53516 15.2266 3.83203 15.2266 2.98828ZM7.72656 2.98828C7.72656 2.19141 8.19531 1.48828 8.85156 1.06641C9.55469 0.644531 10.4453 0.644531 11.1016 1.06641C11.8047 1.48828 12.2266 2.19141 12.2266 2.98828C12.2266 3.83203 11.8047 4.53516 11.1016 4.95703C10.4453 5.37891 9.55469 5.37891 8.85156 4.95703C8.19531 4.53516 7.72656 3.83203 7.72656 2.98828ZM2.47656 0.738281C3.32031 0.738281 4.02344 1.20703 4.44531 1.86328C4.86719 2.56641 4.86719 3.45703 4.44531 4.11328C4.02344 4.81641 3.32031 5.23828 2.47656 5.23828C1.67969 5.23828 0.976563 4.81641 0.554688 4.11328C0.132813 3.45703 0.132813 2.56641 0.554688 1.86328C0.976563 1.20703 1.67969 0.738281 2.47656 0.738281Z" />
</svg>
