<svg width="16" height="16" viewBox="0 0 16 16" xmlns="http://www.w3.org/2000/svg" fill="currentColor">
<path d="M12.2168 9.87201L12.8027 9.2467C12.9199 9.12164 13.125 9.21544 13.125 9.37176V14.4993C13.125 15.3434 12.4805 16 11.7188 16H1.40625C0.615234 16 0 15.3434 0 14.4993V3.49389C0 2.681 0.615234 1.99316 1.40625 1.99316H9.96094C10.1074 1.99316 10.1953 2.21202 10.0781 2.33708L9.49219 2.96238C9.46289 2.99365 9.4043 2.99365 9.375 2.99365H1.40625C1.14258 2.99365 0.9375 3.24377 0.9375 3.49389V14.4993C0.9375 14.7807 1.14258 14.9995 1.40625 14.9995H11.7188C11.9531 14.9995 12.1875 14.7807 12.1875 14.4993V9.99707C12.1875 9.9658 12.1875 9.90327 12.2168 9.87201ZM16.4941 3.90034L7.35352 13.6551L4.42383 13.999C4.01367 14.0616 3.69141 13.7176 3.75 13.2799L4.07227 10.1534L13.2129 0.398632C13.7109 -0.132877 14.4727 -0.132877 14.9707 0.398632L16.4941 2.02443C16.9922 2.55594 16.9922 3.36883 16.4941 3.90034ZM13.7695 5.40107L11.8066 3.3063L4.95117 10.6224L4.7168 12.9673L6.91406 12.7171L13.7695 5.40107ZM15.8496 2.74353L14.2969 1.08647C14.1797 0.992672 14.0039 0.961407 13.8867 1.08647L12.4805 2.61847L14.4141 4.68197L15.8496 3.18124C15.9668 3.05618 15.9668 2.86859 15.8496 2.74353Z"/>
</svg>
