<svg width="21" height="16" viewBox="0 0 21 16" fill="none" xmlns="http://www.w3.org/2000/svg" fill="currentColor">
<path d="M4.17969 3.71429C2.64397 5.14286 1.60826 6.85714 1.14397 8C1.60826 9.14286 2.64397 10.8571 4.17969 12.2857C5.7154 13.7143 7.75112 14.8571 10.2868 14.8571C12.7868 14.8571 14.8225 13.7143 16.3583 12.2857C17.894 10.8571 18.9297 9.14286 19.4297 8C18.9297 6.85714 17.894 5.14286 16.3583 3.71429C14.8225 2.28571 12.7868 1.14286 10.2868 1.14286C7.75112 1.14286 5.7154 2.28571 4.17969 3.71429ZM10.2868 0C13.144 0 15.4654 1.32143 17.144 2.89286C18.8225 4.42857 19.9297 6.28571 20.4654 7.57143C20.5725 7.85714 20.5725 8.17857 20.4654 8.46429C19.9297 9.71429 18.8225 11.5714 17.144 13.1429C15.4654 14.7143 13.144 16 10.2868 16C7.39397 16 5.07254 14.7143 3.39397 13.1429C1.7154 11.5714 0.608259 9.71429 0.0725446 8.46429C-0.0345982 8.17857 -0.0345982 7.85714 0.0725446 7.57143C0.608259 6.28571 1.7154 4.42857 3.39397 2.89286C5.07254 1.32143 7.39397 0 10.2868 0ZM6.85826 8C6.85826 9.25 7.50112 10.3571 8.57255 11C9.60826 11.6071 10.9297 11.6071 12.0011 11C13.0368 10.3571 13.7154 9.25 13.7154 8C13.7154 6.78571 13.0368 5.67857 12.0011 5.03571C10.9297 4.42857 9.60826 4.42857 8.57255 5.03571C7.50112 5.67857 6.85826 6.78571 6.85826 8ZM14.8583 8C14.8583 9.64286 13.9654 11.1429 12.5725 11.9643C11.144 12.7857 9.39397 12.7857 8.00112 11.9643C6.57254 11.1429 5.7154 9.64286 5.7154 8C5.7154 6.39286 6.57254 4.89286 8.00112 4.07143C9.39397 3.25 11.144 3.25 12.5725 4.07143C13.9654 4.89286 14.8583 6.39286 14.8583 8Z"/>
</svg>
