<svg width="16" height="16" viewBox="0 0 16 16"  xmlns="http://www.w3.org/2000/svg" fill="currentColor">
<path d="M11.75 7.80645V8.19355C11.75 8.41935 11.5625 8.58064 11.375 8.58064H8.3125V11.7419C8.3125 11.9677 8.125 12.129 7.9375 12.129H7.5625C7.34375 12.129 7.1875 11.9677 7.1875 11.7419V8.58064H4.125C3.90625 8.58064 3.75 8.41935 3.75 8.19355V7.80645C3.75 7.6129 3.90625 7.41935 4.125 7.41935H7.1875V4.25806C7.1875 4.06452 7.34375 3.87097 7.5625 3.87097H7.9375C8.125 3.87097 8.3125 4.06452 8.3125 4.25806V7.41935H11.375C11.5625 7.41935 11.75 7.6129 11.75 7.80645ZM15.5 8C15.5 12.4194 12.0312 16 7.75 16C3.46875 16 0 12.4194 0 8C0 3.58065 3.46875 0 7.75 0C12.0312 0 15.5 3.58065 15.5 8ZM14.5 8C14.5 4.16129 11.4375 1.03226 7.75 1.03226C4 1.03226 1 4.19355 1 8C1 11.871 4.03125 14.9677 7.75 14.9677C11.4688 14.9677 14.5 11.8387 14.5 8Z"/>
</svg>
