<svg width="17" height="18" viewBox="0 0 17 18" fill="none" xmlns="http://www.w3.org/2000/svg">
<path d="M14.5625 2.25C15.4766 2.25 16.25 3.02344 16.25 3.9375V16.3125C16.25 17.2617 15.4766 18 14.5625 18H2.1875C1.23828 18 0.5 17.2617 0.5 16.3125V3.9375C0.5 3.02344 1.23828 2.25 2.1875 2.25H3.875V0.421875C3.875 0.210938 4.05078 0 4.29688 0H4.57812C4.78906 0 5 0.210938 5 0.421875V2.25H11.75V0.421875C11.75 0.210938 11.9258 0 12.1719 0H12.4531C12.6641 0 12.875 0.210938 12.875 0.421875V2.25H14.5625ZM2.1875 3.375C1.87109 3.375 1.625 3.65625 1.625 3.9375V5.625H15.125V3.9375C15.125 3.65625 14.8438 3.375 14.5625 3.375H2.1875ZM14.5625 16.875C14.8438 16.875 15.125 16.6289 15.125 16.3125V6.75H1.625V16.3125C1.625 16.6289 1.87109 16.875 2.1875 16.875H14.5625ZM5.70312 11.25H4.29688C4.05078 11.25 3.875 11.0742 3.875 10.8281V9.42188C3.875 9.21094 4.05078 9 4.29688 9H5.70312C5.91406 9 6.125 9.21094 6.125 9.42188V10.8281C6.125 11.0742 5.91406 11.25 5.70312 11.25ZM9.07812 11.25H7.67188C7.42578 11.25 7.25 11.0742 7.25 10.8281V9.42188C7.25 9.21094 7.42578 9 7.67188 9H9.07812C9.28906 9 9.5 9.21094 9.5 9.42188V10.8281C9.5 11.0742 9.28906 11.25 9.07812 11.25ZM12.4531 11.25H11.0469C10.8008 11.25 10.625 11.0742 10.625 10.8281V9.42188C10.625 9.21094 10.8008 9 11.0469 9H12.4531C12.6641 9 12.875 9.21094 12.875 9.42188V10.8281C12.875 11.0742 12.6641 11.25 12.4531 11.25ZM9.07812 14.625H7.67188C7.42578 14.625 7.25 14.4492 7.25 14.2031V12.7969C7.25 12.5859 7.42578 12.375 7.67188 12.375H9.07812C9.28906 12.375 9.5 12.5859 9.5 12.7969V14.2031C9.5 14.4492 9.28906 14.625 9.07812 14.625ZM5.70312 14.625H4.29688C4.05078 14.625 3.875 14.4492 3.875 14.2031V12.7969C3.875 12.5859 4.05078 12.375 4.29688 12.375H5.70312C5.91406 12.375 6.125 12.5859 6.125 12.7969V14.2031C6.125 14.4492 5.91406 14.625 5.70312 14.625ZM12.4531 14.625H11.0469C10.8008 14.625 10.625 14.4492 10.625 14.2031V12.7969C10.625 12.5859 10.8008 12.375 11.0469 12.375H12.4531C12.6641 12.375 12.875 12.5859 12.875 12.7969V14.2031C12.875 14.4492 12.6641 14.625 12.4531 14.625Z" fill="black"/>
</svg>
